<svg width="1269" height="1683" viewBox="0 0 1269 1683" fill="none" xmlns="http://www.w3.org/2000/svg">
<path d="M793.969 1541.04C812.384 1521.71 820.787 1494.56 820.151 1461.92C819.515 1429.29 809.837 1391.22 792.138 1350.14C756.742 1267.99 689.305 1173.91 598.204 1087.38C507.103 1000.85 409.621 938.302 325.675 907.103C283.701 891.504 245.135 883.752 212.457 884.746C179.781 885.739 153.033 895.472 134.618 914.799C116.203 934.125 107.8 961.283 108.436 993.915C109.072 1026.55 118.75 1064.62 136.448 1105.7C171.845 1187.85 239.282 1281.93 330.382 1368.46C421.483 1454.98 518.965 1517.54 602.911 1548.74C644.885 1564.34 683.451 1572.09 716.13 1571.09C748.806 1570.1 775.554 1560.37 793.969 1541.04Z" stroke="#FFDED3"/>
<path d="M1077.5 979.02C1269.05 777.996 1279.43 477.529 1100.84 307.899C922.238 138.269 622.181 163.612 430.637 364.635C239.094 565.659 228.707 866.127 407.306 1035.76C585.904 1205.39 885.961 1180.04 1077.5 979.02Z" stroke="#FFDED3"/>
</svg>
